<?xml version="1.0" encoding="utf-8"?>
<svg width="36px" height="36px" viewBox="0 0 36 36" version="1.1" xmlns:xlink="http://www.w3.org/1999/xlink" xmlns="http://www.w3.org/2000/svg">
  <defs>
    <filter id="filter_1">
      <feColorMatrix in="SourceGraphic" type="matrix" values="0 0 0 0 1 0 0 0 0 1 0 0 0 0 1 0 0 0 1 0" />
    </filter>
  </defs>
  <g id="dollar" filter="url(#filter_1)">
    <path d="M18 3C26.271 3 33 9.729 33 18C33 26.271 26.271 33 18 33C9.729 33 3 26.271 3 18C3 9.729 9.729 3 18 3L18 3ZM18 0C8.0595 0 0 8.0595 0 18C0 27.9405 8.0595 36 18 36C27.9405 36 36 27.9405 36 18C36 8.0595 27.9405 0 18 0L18 0ZM18 4.5C10.5435 4.5 4.5 10.5435 4.5 18C4.5 25.4565 10.5435 31.5 18 31.5C25.4565 31.5 31.5 25.4565 31.5 18C31.5 10.5435 25.4565 4.5 18 4.5L18 4.5ZM19.5 25.4205L19.5 27L18 27L18 25.503C16.4475 25.476 14.841 25.1055 13.5 24.4125L14.1825 21.9465C15.6165 22.503 17.526 23.094 19.02 22.7565C20.7435 22.3665 21.0975 20.5935 19.191 19.74C17.7945 19.089 13.524 18.5325 13.524 14.8755C13.524 12.831 15.0825 11.001 18 10.6005L18 9L19.5 9L19.5 10.527C20.5875 10.5555 21.8025 10.7445 23.163 11.157L22.62 13.629C21.468 13.224 20.196 12.8565 18.957 12.9315C16.7235 13.062 16.527 14.9955 18.0855 15.8055C20.652 17.0115 24 17.907 24 21.1245C24.003 23.7015 21.984 25.0725 19.5 25.4205L19.5 25.4205Z" id="Shape" fill="#000000" fill-rule="evenodd" stroke="none" />
  </g>
</svg>