<?xml version="1.0" encoding="utf-8"?>
<svg width="216px" height="29px" viewBox="0 0 216 29" version="1.1" xmlns:xlink="http://www.w3.org/1999/xlink" xmlns="http://www.w3.org/2000/svg">
  <defs>
    <filter id="filter_1">
      <feColorMatrix in="SourceGraphic" type="matrix" values="0 0 0 0 0.28627452 0 0 0 0 0.6666667 0 0 0 0 0.14901961 0 0 0 1 0" />
    </filter>
    <path d="M0 0L20 0L20 20L0 20L0 0Z" id="path_1" />
    <clipPath id="mask_1">
      <use xlink:href="#path_1" />
    </clipPath>
  </defs>
  <g fill="#49AA26" stroke="none" id="MEU" transform="translate(0 4)">
    <path d="M1.95996 4.13135L4.74609 4.13135L9.73828 9.14111L14.7305 4.13135L17.5166 4.13135L17.5166 17.8687L14.7305 17.8687L14.7305 7.98975L9.73828 12.7974L4.74609 7.98975L4.74609 17.8687L1.95996 17.8687L1.95996 4.13135ZM21.4277 4.13135L33.126 4.13135L33.126 6.57471L24.2139 6.57471L24.2139 9.31689L32.1064 9.31689L32.1064 11.6108L24.2139 11.6108L24.2139 15.4341L33.3105 15.4341L33.3105 17.8687L21.4277 17.8687L21.4277 4.13135ZM38.6719 4.13135L35.8857 4.13135L35.8857 12.0327Q35.8857 13.3862 36.3428 14.4937Q36.7998 15.6011 37.6699 16.3921Q38.54 17.1831 39.8013 17.6138Q41.0625 18.0444 42.6797 18.0444Q44.2969 18.0444 45.5581 17.6138Q46.8193 17.1831 47.6895 16.3921Q48.5596 15.6011 49.0166 14.4937Q49.4736 13.3862 49.4736 12.0327L49.4736 4.13135L46.6875 4.13135L46.6875 11.6987Q46.6875 12.6304 46.4326 13.3555Q46.1777 14.0806 45.6724 14.5815Q45.167 15.0825 44.4155 15.3418Q43.6641 15.6011 42.6797 15.6011Q41.6865 15.6011 40.9395 15.3418Q40.1924 15.0825 39.687 14.5815Q39.1816 14.0806 38.9268 13.3555Q38.6719 12.6304 38.6719 11.6987L38.6719 4.13135Z" />
  </g>
  <g fill="#49AA26" stroke="none" id="." transform="translate(49 0)">
    <path d="M6.27539 17.1963Q6.27539 16.4932 6.56543 15.8691Q6.85547 15.2451 7.40039 14.7793Q7.94531 14.3135 8.71875 14.0498Q9.49219 13.7861 10.459 13.7861Q11.4258 13.7861 12.1992 14.0498Q12.9727 14.3135 13.5088 14.7793Q14.0449 15.2451 14.335 15.8691Q14.625 16.4932 14.625 17.1963Q14.625 17.8994 14.335 18.5234Q14.0449 19.1475 13.5088 19.6045Q12.9727 20.0615 12.1992 20.334Q11.4258 20.6064 10.459 20.6064Q9.49219 20.6064 8.71875 20.334Q7.94531 20.0615 7.40039 19.6045Q6.85547 19.1475 6.56543 18.5234Q6.27539 17.8994 6.27539 17.1963Z" />
  </g>
  <g id="FINANCEIR" fill="#FFFFFF" transform="translate(67 4)">
    <path d="M74.5137 10.9165Q74.5137 9.44873 75.0674 8.17871Q75.6211 6.90869 76.6714 5.97266Q77.7217 5.03662 79.2378 4.50049Q80.7539 3.96436 82.6699 3.96436Q84.3486 3.96436 85.7505 4.30273Q87.1523 4.64111 88.3564 5.33545L87.0732 7.44482Q86.7129 7.20752 86.2427 7.02295Q85.7725 6.83838 85.2407 6.71094Q84.709 6.5835 84.1421 6.51318Q83.5752 6.44287 83.0215 6.44287Q81.6855 6.44287 80.6396 6.77246Q79.5938 7.10205 78.8774 7.69531Q78.1611 8.28857 77.7876 9.11035Q77.4141 9.93213 77.4141 10.9165Q77.4141 11.936 77.8008 12.7886Q78.1875 13.6411 78.9214 14.2607Q79.6553 14.8804 80.7144 15.2275Q81.7734 15.5747 83.1094 15.5747Q83.7158 15.5747 84.3135 15.4868Q84.9111 15.3989 85.4692 15.2451Q86.0273 15.0913 86.5459 14.876Q87.0645 14.6606 87.5127 14.4058L88.7959 16.5151Q87.6709 17.2358 86.1943 17.6445Q84.7178 18.0532 83.0566 18.0532Q80.9385 18.0532 79.3389 17.5039Q77.7393 16.9546 76.667 15.9922Q75.5947 15.0298 75.0542 13.7246Q74.5137 12.4194 74.5137 10.9165ZM1.95117 4.13135L14.2383 4.13135L14.2383 6.57471L4.7373 6.57471L4.7373 10.1694L12.8057 10.1694L12.8057 12.4634L4.7373 12.4634L4.7373 17.8687L1.95117 17.8687L1.95117 4.13135ZM16.5762 4.13135L19.3799 4.13135L19.3799 17.8687L16.5762 17.8687L16.5762 4.13135ZM25.6992 4.13135L22.9131 4.13135L22.9131 17.8687L25.6992 17.8687L25.6992 7.11084L34.2598 11.5669L34.2598 17.8687L37.0459 17.8687L37.0459 4.13135L34.2598 4.13135L34.2598 8.61377L25.6992 4.13135ZM45.6152 4.13135L48.5684 4.13135L55.2129 17.8687L52.2861 17.8687L51.1875 15.5571L43.1631 15.5571L42.0996 17.8687L39.1641 17.8687L45.6152 4.13135ZM60.1172 4.13135L57.3311 4.13135L57.3311 17.8687L60.1172 17.8687L60.1172 7.11084L68.6777 11.5669L68.6777 17.8687L71.4639 17.8687L71.4639 4.13135L68.6777 4.13135L68.6777 8.61377L60.1172 4.13135ZM103.562 4.13135L91.8633 4.13135L91.8633 17.8687L103.746 17.8687L103.746 15.4341L94.6494 15.4341L94.6494 11.6108L102.542 11.6108L102.542 9.31689L94.6494 9.31689L94.6494 6.57471L103.562 6.57471L103.562 4.13135ZM106.488 4.13135L109.292 4.13135L109.292 17.8687L106.488 17.8687L106.488 4.13135ZM119.83 4.13135L112.843 4.13135L112.843 17.8687L115.629 17.8687L115.629 13.9575L119.848 13.9663L119.927 13.9663L122.511 17.8687L125.921 17.8687L122.933 13.4741Q123.715 13.1753 124.295 12.7227Q124.875 12.27 125.257 11.6899Q125.64 11.1099 125.824 10.4199Q126.009 9.72998 126.009 8.96533Q126.009 7.83154 125.635 6.93506Q125.262 6.03857 124.497 5.41455Q123.732 4.79053 122.572 4.46094Q121.412 4.13135 119.83 4.13135ZM121.285 11.3647Q120.691 11.5493 119.9 11.5493L115.629 11.5493L115.629 6.55713L119.9 6.55713Q121.491 6.55713 122.282 7.18555Q123.073 7.81397 123.073 8.96533Q123.073 9.5542 122.875 10.0332Q122.678 10.5122 122.278 10.8462Q121.878 11.1802 121.285 11.3647ZM50.0889 13.2632L47.1182 7.02295L44.2266 13.2632L50.0889 13.2632Z" />
  </g>
  <g id="iconmonstr-coin-5" transform="translate(196 3)" filter="url(#filter_1)">
    <path d="M0 0L20 0L20 20L0 20L0 0Z" id="Background" fill="none" fill-rule="evenodd" stroke="none" />
    <g clip-path="url(#mask_1)">
      <path d="M8.79419 1.76916C9.18586 1.70332 9.58836 1.66666 10 1.66666C14.1425 1.66666 17.5 5.02416 17.5 9.16666C17.5 10.6183 17.0834 11.9692 16.3675 13.115C16.5559 12.3842 16.6667 11.6225 16.6667 10.8333C16.6667 6.21916 13.2367 2.40082 8.79419 1.76916L8.79419 1.76916ZM19.1667 9.16667C19.1667 9.95583 19.0559 10.7175 18.8675 11.4483C19.5834 10.3025 20 8.95167 20 7.5C20 3.3575 16.6425 0 12.5 0C12.0884 0 11.6859 0.0366667 11.2942 0.1025C15.7367 0.734167 19.1667 4.5525 19.1667 9.16667L19.1667 9.16667ZM7.49999 5C10.7158 5 13.3333 7.61667 13.3333 10.8333C13.3333 14.05 10.7158 16.6667 7.49999 16.6667C4.28416 16.6667 1.66666 14.05 1.66666 10.8333C1.66666 7.61667 4.28416 5 7.49999 5L7.49999 5ZM7.5 3.33334C3.3575 3.33334 0 6.69084 0 10.8333C0 14.9758 3.3575 18.3333 7.5 18.3333C11.6425 18.3333 15 14.9758 15 10.8333C15 6.69084 11.6425 3.33334 7.5 3.33334L7.5 3.33334ZM10.3467 12.28C10.3467 10.7908 8.79669 10.3758 7.60836 9.81749C6.88836 9.44332 6.97753 8.54666 8.01086 8.48666C8.58669 8.45166 9.17419 8.62166 9.70753 8.80916L9.95919 7.66582C9.3292 7.47416 8.76753 7.38666 8.26336 7.37249L8.26336 6.66666L7.57003 6.66666L7.57003 7.40749C6.21919 7.59332 5.49669 8.44082 5.49669 9.38666C5.49669 11.08 7.47419 11.3383 8.12003 11.6392C9.00419 12.0342 8.83919 12.8542 8.04169 13.035C7.35003 13.1917 6.46419 12.9183 5.80169 12.66L5.48669 13.8017C6.10669 14.1225 6.85086 14.2942 7.57003 14.3058L7.57003 15L8.26336 15L8.26336 14.2692C9.4142 14.1075 10.3492 13.4725 10.3467 12.28L10.3467 12.28Z" transform="translate(0 0.8333435)" id="Shape" fill="#000000" fill-rule="evenodd" stroke="none" />
    </g>
  </g>
</svg>