<?xml version="1.0" encoding="utf-8"?>
<svg width="408px" height="99px" viewBox="0 0 408 99" version="1.1" xmlns:xlink="http://www.w3.org/1999/xlink" xmlns="http://www.w3.org/2000/svg">
  <defs>
    <filter id="filter_1">
      <feColorMatrix in="SourceGraphic" type="matrix" values="0 0 0 0 0.28627452 0 0 0 0 0.6666667 0 0 0 0 0.14901961 0 0 0 1 0" />
    </filter>
    <path d="M0 0L38 0L38 38L0 38L0 0Z" id="path_1" />
    <clipPath id="mask_1">
      <use xlink:href="#path_1" />
    </clipPath>
  </defs>
  <g fill="#49AA26" stroke="none" id="MEU" transform="translate(0 15)">
    <path d="M3.81104 42.6443L9.22852 42.6443L18.9355 52.3855L28.6426 42.6443L34.0601 42.6443L34.0601 69.3557L28.6426 69.3557L28.6426 50.1467L18.9355 59.4949L9.22852 50.1467L9.22852 69.3557L3.81104 69.3557L3.81104 42.6443ZM41.665 42.6443L64.4116 42.6443L64.4116 47.3953L47.0825 47.3953L47.0825 52.7273L62.4292 52.7273L62.4292 57.1877L47.0825 57.1877L47.0825 64.6218L64.7705 64.6218L64.7705 69.3557L41.665 69.3557L41.665 42.6443ZM75.1953 42.6443L69.7778 42.6443L69.7778 58.0081Q69.7778 60.6399 70.6665 62.7932Q71.5552 64.9465 73.2471 66.4846Q74.939 68.0227 77.3914 68.8601Q79.8438 69.6975 82.9883 69.6975Q86.1328 69.6975 88.5852 68.8601Q91.0376 68.0227 92.7295 66.4846Q94.4214 64.9465 95.3101 62.7932Q96.1987 60.6399 96.1987 58.0081L96.1987 42.6443L90.7813 42.6443L90.7813 57.3586Q90.7813 59.1702 90.2856 60.5801Q89.79 61.99 88.8074 62.9641Q87.8247 63.9382 86.3635 64.4424Q84.9023 64.9465 82.9883 64.9465Q81.0571 64.9465 79.6045 64.4424Q78.1519 63.9382 77.1692 62.9641Q76.1865 61.99 75.6909 60.5801Q75.1953 59.1702 75.1953 57.3586L75.1953 42.6443Z" />
  </g>
  <g id="FINANCEIR" fill="#FFFFFF" transform="translate(119 0)">
    <path d="M144.888 70.8376Q144.888 67.9836 145.964 65.5142Q147.041 63.0447 149.083 61.2246Q151.125 59.4045 154.073 58.3621Q157.021 57.3196 160.747 57.3196Q164.011 57.3196 166.737 57.9775Q169.463 58.6355 171.804 59.9856L169.309 64.0872Q168.608 63.6257 167.694 63.2668Q166.78 62.908 165.746 62.6601Q164.712 62.4123 163.61 62.2756Q162.507 62.1389 161.431 62.1389Q158.833 62.1389 156.799 62.7798Q154.766 63.4206 153.373 64.5742Q151.98 65.7278 151.254 67.3257Q150.527 68.9236 150.527 70.8376Q150.527 72.8201 151.279 74.4778Q152.031 76.1355 153.458 77.3403Q154.885 78.5452 156.945 79.2202Q159.004 79.8953 161.602 79.8953Q162.781 79.8953 163.943 79.7244Q165.105 79.5535 166.19 79.2544Q167.275 78.9553 168.284 78.5366Q169.292 78.1179 170.164 77.6223L172.659 81.7239Q170.471 83.1252 167.6 83.9199Q164.729 84.7146 161.499 84.7146Q157.38 84.7146 154.27 83.6465Q151.16 82.5784 149.075 80.707Q146.99 78.8357 145.939 76.2978Q144.888 73.76 144.888 70.8376ZM3.79395 57.6443L27.6855 57.6443L27.6855 62.3953L9.21143 62.3953L9.21143 69.385L24.8999 69.385L24.8999 73.8455L9.21143 73.8455L9.21143 84.3557L3.79395 84.3557L3.79395 57.6443ZM32.2314 57.6443L37.6831 57.6443L37.6831 84.3557L32.2314 84.3557L32.2314 57.6443ZM49.9707 57.6443L44.5532 57.6443L44.5532 84.3557L49.9707 84.3557L49.9707 63.4377L66.6162 72.1023L66.6162 84.3557L72.0337 84.3557L72.0337 57.6443L66.6162 57.6443L66.6162 66.3601L49.9707 57.6443ZM88.6963 57.6443L94.4385 57.6443L107.358 84.3557L101.667 84.3557L99.5313 79.8611L83.9282 79.8611L81.8604 84.3557L76.1523 84.3557L88.6963 57.6443ZM116.895 57.6443L111.477 57.6443L111.477 84.3557L116.895 84.3557L116.895 63.4377L133.54 72.1023L133.54 84.3557L138.958 84.3557L138.958 57.6443L133.54 57.6443L133.54 66.3601L116.895 57.6443ZM201.37 57.6443L178.623 57.6443L178.623 84.3557L201.729 84.3557L201.729 79.6218L184.041 79.6218L184.041 72.1877L199.387 72.1877L199.387 67.7273L184.041 67.7273L184.041 62.3953L201.37 62.3953L201.37 57.6443ZM207.061 57.6443L212.512 57.6443L212.512 84.3557L207.061 84.3557L207.061 57.6443ZM233.003 57.6443L219.417 57.6443L219.417 84.3557L224.834 84.3557L224.834 76.7507L233.037 76.7678L233.191 76.7678L238.215 84.3557L244.846 84.3557L239.036 75.8108Q240.557 75.2297 241.685 74.3496Q242.813 73.4695 243.556 72.3415Q244.299 71.2136 244.658 69.8721Q245.017 68.5305 245.017 67.0437Q245.017 64.8391 244.291 63.0959Q243.564 61.3528 242.078 60.1394Q240.591 58.926 238.335 58.2851Q236.079 57.6443 233.003 57.6443ZM235.831 71.7092Q234.678 72.0681 233.14 72.0681L224.834 72.0681L224.834 62.3611L233.14 62.3611Q236.233 62.3611 237.771 63.583Q239.309 64.8049 239.309 67.0437Q239.309 68.1887 238.925 69.1201Q238.54 70.0515 237.762 70.7009Q236.985 71.3503 235.831 71.7092ZM97.395 75.4006L91.6187 63.2668L85.9961 75.4006L97.395 75.4006Z" />
  </g>
  <g id="iconmonstr-coin-5" transform="translate(369.99988 49)" filter="url(#filter_1)">
    <path d="M0 0L38 0L38 38L0 38L0 0Z" id="Background" fill="none" fill-rule="evenodd" stroke="none" />
    <g clip-path="url(#mask_1)">
      <path d="M16.7089 3.36139C17.4531 3.23631 18.2178 3.16664 19 3.16664C26.8708 3.16664 33.25 9.54589 33.25 17.4166C33.25 20.1748 32.4583 22.7414 31.0983 24.9185C31.4561 23.5299 31.6667 22.0827 31.6667 20.5833C31.6667 11.8164 25.1497 4.56156 16.7089 3.36139L16.7089 3.36139ZM36.4167 17.4167C36.4167 18.9161 36.2061 20.3633 35.8483 21.7518C37.2083 19.5747 38 17.0082 38 14.25C38 6.37925 31.6208 0 23.75 0C22.9678 0 22.2031 0.0696667 21.4589 0.19475C29.8997 1.39492 36.4167 8.64975 36.4167 17.4167L36.4167 17.4167ZM14.25 9.5C20.3601 9.5 25.3333 14.4717 25.3333 20.5833C25.3333 26.695 20.3601 31.6667 14.25 31.6667C8.13988 31.6667 3.16663 26.695 3.16663 20.5833C3.16663 14.4717 8.13988 9.5 14.25 9.5L14.25 9.5ZM14.25 6.33336C6.37925 6.33336 0 12.7126 0 20.5834C0 28.4541 6.37925 34.8334 14.25 34.8334C22.1208 34.8334 28.5 28.4541 28.5 20.5834C28.5 12.7126 22.1208 6.33336 14.25 6.33336L14.25 6.33336ZM19.6587 23.332C19.6587 20.5026 16.7137 19.7141 14.4558 18.6532C13.0878 17.9423 13.2573 16.2386 15.2206 16.1246C16.3147 16.0581 17.4309 16.3811 18.4443 16.7374L18.9224 14.5651C17.7254 14.2009 16.6583 14.0346 15.7003 14.0077L15.7003 12.6666L14.383 12.6666L14.383 14.0742C11.8164 14.4273 10.4437 16.0376 10.4437 17.8346C10.4437 21.052 14.2009 21.5428 15.428 22.1144C17.1079 22.8649 16.7944 24.4229 15.2792 24.7665C13.965 25.0641 12.2819 24.5448 11.0232 24.054L10.4247 26.2231C11.6027 26.8327 13.0166 27.1589 14.383 27.1811L14.383 28.5L15.7003 28.5L15.7003 27.1114C17.8869 26.8042 19.6634 25.5977 19.6587 23.332L19.6587 23.332Z" transform="translate(0 1.5833588)" id="Shape" fill="#000000" fill-rule="evenodd" stroke="none" />
    </g>
  </g>
  <g fill="#49AA26" stroke="none" id="." transform="translate(91 48)">
    <path d="M10.5273 31.3271Q10.5273 30.1553 11.0107 29.1152Q11.4941 28.0752 12.4023 27.2988Q13.3105 26.5225 14.5996 26.083Q15.8887 25.6436 17.5 25.6436Q19.1113 25.6436 20.4004 26.083Q21.6895 26.5225 22.583 27.2988Q23.4766 28.0752 23.96 29.1152Q24.4434 30.1553 24.4434 31.3271Q24.4434 32.499 23.96 33.5391Q23.4766 34.5791 22.583 35.3408Q21.6895 36.1025 20.4004 36.5566Q19.1113 37.0107 17.5 37.0107Q15.8887 37.0107 14.5996 36.5566Q13.3105 36.1025 12.4023 35.3408Q11.4941 34.5791 11.0107 33.5391Q10.5273 32.499 10.5273 31.3271Z" />
  </g>
</svg>