<?xml version="1.0" encoding="utf-8"?>
<svg width="408px" height="99px" viewBox="0 0 408 99" version="1.1" xmlns:xlink="http://www.w3.org/1999/xlink" xmlns="http://www.w3.org/2000/svg">
  <defs>
    <filter id="filter_1">
      <feColorMatrix in="SourceGraphic" type="matrix" values="0 0 0 0 0.015686275 0 0 0 0 0.015686275 0 0 0 0 0.015686275 0 0 0 1 0" />
    </filter>
    <filter id="filter_2">
      <feColorMatrix in="SourceGraphic" type="matrix" values="0 0 0 0 0.28627452 0 0 0 0 0.6666667 0 0 0 0 0.14901961 0 0 0 1 0" />
    </filter>
    <path d="M0 0L408 0L408 99L0 99L0 0Z" id="path_1" />
    <path d="M0 0L38 0L38 38L0 38L0 0L0 0Z" id="path_2" />
    <clipPath id="mask_1">
      <use xlink:href="#path_1" />
    </clipPath>
    <clipPath id="mask_2">
      <use xlink:href="#path_2" />
    </clipPath>
  </defs>
  <g id="logo">
    <path d="M0 0L408 0L408 99L0 99L0 0Z" id="Background" fill="none" fill-rule="evenodd" stroke="none" />
    <g clip-path="url(#mask_1)">
      <g id="MEU" transform="translate(3.8110352 57.644287)">
        <path d="M0 0L5.41748 0L15.1245 9.7412L24.8316 0L30.2491 0L30.2491 26.7114L24.8316 26.7114L24.8316 7.5024L15.1245 16.8506L5.41748 7.5024L5.41748 26.7114L0 26.7114L0 0L0 0ZM37.854 0L60.6006 0L60.6006 4.751L43.2715 4.751L43.2715 10.083L58.6182 10.083L58.6182 14.5434L43.2715 14.5434L43.2715 21.9775L60.9595 21.9775L60.9595 26.7114L37.854 26.7114L37.854 0L37.854 0ZM71.3843 0L65.9668 0L65.9668 15.3638C65.9668 17.1183 66.263 18.7134 66.8555 20.1489C67.4479 21.5844 68.3081 22.8149 69.4361 23.8403C70.564 24.8657 71.9454 25.6575 73.5804 26.2158C75.2153 26.7741 77.0809 27.0532 79.1773 27.0532C81.2736 27.0532 83.1392 26.7741 84.7742 26.2158C86.4091 25.6575 87.7905 24.8657 88.9185 23.8403C90.0464 22.8149 90.9066 21.5844 91.4991 20.1489C92.0915 18.7134 92.3877 17.1183 92.3877 15.3638L92.3877 0L86.9703 0L86.9703 14.7143C86.9703 15.922 86.805 16.9959 86.4746 17.9358C86.1442 18.8757 85.6514 19.6704 84.9964 20.3198C84.3412 20.9692 83.5266 21.462 82.5525 21.7981C81.5783 22.1342 80.4533 22.3022 79.1773 22.3022C77.8898 22.3022 76.7619 22.1342 75.7935 21.7981C74.8251 21.462 74.0133 20.9692 73.3582 20.3198C72.703 19.6704 72.2103 18.8757 71.8799 17.9358C71.5495 16.9959 71.3843 15.922 71.3843 14.7143L71.3843 0L71.3843 0Z" id="Shape" fill="#49AA26" fill-rule="evenodd" stroke="none" />
      </g>
      <g id="FINANCEIR" transform="translate(122.793945 57.31958)" filter="url(#filter_1)">
        <path d="M141.094 13.518C141.094 11.6153 141.453 9.84086 142.17 8.1946C142.888 6.54827 143.928 5.1184 145.289 3.905C146.65 2.6916 148.314 1.73743 150.279 1.0425C152.244 0.3475 154.469 0 156.953 0C159.129 0 161.126 0.219299 162.943 0.657902C164.76 1.09657 166.449 1.76593 168.01 2.666L165.515 6.7676C165.048 6.45993 164.509 6.18647 163.9 5.9472C163.291 5.708 162.641 5.50577 161.952 5.3405C161.263 5.1753 160.551 5.04713 159.816 4.956C159.081 4.86487 158.354 4.8193 157.637 4.8193C155.905 4.8193 154.361 5.03294 153.005 5.4602C151.65 5.8874 150.508 6.48553 149.579 7.2546C148.65 8.02367 147.944 8.94083 147.46 10.0061C146.975 11.0714 146.733 12.242 146.733 13.518C146.733 14.8397 146.984 16.0531 147.485 17.1582C147.986 18.2633 148.713 19.2175 149.664 20.0207C150.615 20.824 151.778 21.4506 153.151 21.9006C154.524 22.3507 156.076 22.5757 157.808 22.5757C158.594 22.5757 159.374 22.5187 160.149 22.4048C160.924 22.2909 161.673 22.1342 162.396 21.9348C163.119 21.7354 163.817 21.4961 164.49 21.217C165.162 20.9379 165.789 20.6331 166.37 20.3027L168.865 24.4043C167.406 25.3385 165.72 26.0705 163.806 26.6003C161.892 27.1301 159.858 27.395 157.705 27.395C154.959 27.395 152.549 27.039 150.476 26.3269C148.403 25.6148 146.671 24.635 145.281 23.3874C143.891 22.1399 142.846 20.6701 142.145 18.9782C141.444 17.2863 141.094 15.4663 141.094 13.518L141.094 13.518ZM0 0.324699L23.8915 0.324699L23.8915 5.0757L5.41747 5.0757L5.41747 12.0654L21.1059 12.0654L21.1059 16.5259L5.41747 16.5259L5.41747 27.0361L0 27.0361L0 0.324699L0 0.324699ZM28.4374 0.324699L33.8892 0.324699L33.8892 27.0361L28.4374 27.0361L28.4374 0.324699L28.4374 0.324699ZM46.1768 0.324699L40.7592 0.324699L40.7592 27.0361L46.1768 27.0361L46.1768 6.1181L62.8223 14.7827L62.8223 27.0361L68.2397 27.0361L68.2397 0.324699L62.8223 0.324699L62.8223 9.0405L46.1768 0.324699L46.1768 0.324699ZM84.9023 0.324699L90.6446 0.324699L103.564 27.0361L97.873 27.0361L95.7374 22.5415L80.1342 22.5415L78.0664 27.0361L72.3583 27.0361L84.9023 0.324699L84.9023 0.324699ZM113.101 0.324699L107.683 0.324699L107.683 27.0361L113.101 27.0361L113.101 6.1181L129.746 14.7827L129.746 27.0361L135.164 27.0361L135.164 0.324699L129.746 0.324699L129.746 9.0405L113.101 0.324699L113.101 0.324699ZM197.576 0.324699L174.829 0.324699L174.829 27.0361L197.935 27.0361L197.935 22.3022L180.247 22.3022L180.247 14.8681L195.593 14.8681L195.593 10.4077L180.247 10.4077L180.247 5.0757L197.576 5.0757L197.576 0.324699L197.576 0.324699ZM203.267 0.324699L208.718 0.324699L208.718 27.0361L203.267 27.0361L203.267 0.324699L203.267 0.324699ZM229.209 0.324699L215.623 0.324699L215.623 27.0361L221.04 27.0361L221.04 19.4311L229.243 19.4482L229.397 19.4482L234.421 27.0361L241.052 27.0361L235.242 18.4912C236.256 18.1038 237.139 17.6167 237.891 17.03C238.643 16.4433 239.267 15.7739 239.762 15.0219C240.257 14.27 240.625 13.4468 240.864 12.5525C241.103 11.6581 241.223 10.7153 241.223 9.7241C241.223 8.25437 240.981 6.93843 240.497 5.7763C240.012 4.61423 239.275 3.62873 238.284 2.8198C237.293 2.01087 236.045 1.39277 234.541 0.9655C233.037 0.5383 231.26 0.324699 229.209 0.324699L229.209 0.324699ZM232.037 14.3896C231.268 14.6289 230.371 14.7485 229.346 14.7485L221.04 14.7485L221.04 5.0415L229.346 5.0415C231.408 5.0415 232.952 5.4488 233.977 6.2634C235.002 7.078 235.515 8.23157 235.515 9.7241C235.515 10.4874 235.387 11.1796 235.131 11.8005C234.874 12.4214 234.487 12.9484 233.968 13.3813C233.45 13.8142 232.806 14.1503 232.037 14.3896L232.037 14.3896ZM93.601 18.081L87.8247 5.9472L82.2021 18.081L93.601 18.081L93.601 18.081Z" id="Shape" fill="#FFFFFF" fill-rule="evenodd" stroke="none" />
      </g>
      <g id="iconmonstr-coin-5" transform="translate(369.99988 49)" filter="url(#filter_2)">
        <path d="M0 0L38 0L38 38L0 38L0 0L0 0Z" id="Background" fill="none" fill-rule="evenodd" stroke="none" />
        <g id="Mask-group">
          <path d="M0 0L38 0L38 38L0 38L0 0L0 0Z" id="path_1" fill="none" fill-rule="evenodd" stroke="none" />
          <g clip-path="url(#mask_2)">
            <g id="Group" transform="translate(0 1.5833588)" filter="url(#filter_2)">
              <path d="M16.7089 3.36139C17.4531 3.23631 18.2178 3.16664 19 3.16664C26.8708 3.16664 33.25 9.54589 33.25 17.4166C33.25 20.1748 32.4583 22.7414 31.0983 24.9185C31.4561 23.5299 31.6667 22.0827 31.6667 20.5833C31.6667 11.8164 25.1497 4.56156 16.7089 3.36139L16.7089 3.36139L16.7089 3.36139ZM36.4167 17.4167C36.4167 18.9161 36.2061 20.3633 35.8483 21.7518C37.2083 19.5747 38 17.0082 38 14.25C38 6.37925 31.6208 0 23.75 0C22.9678 0 22.2031 0.0696678 21.4589 0.194752C29.8997 1.39492 36.4167 8.64975 36.4167 17.4167L36.4167 17.4167L36.4167 17.4167ZM14.25 9.5C20.3601 9.5 25.3333 14.4717 25.3333 20.5833C25.3333 26.695 20.3601 31.6667 14.25 31.6667C8.13989 31.6667 3.16663 26.695 3.16663 20.5833C3.16663 14.4717 8.13989 9.5 14.25 9.5L14.25 9.5L14.25 9.5ZM14.25 6.33336C6.37924 6.33336 0 12.7126 0 20.5834C0 28.4541 6.37924 34.8334 14.25 34.8334C22.1208 34.8334 28.5 28.4541 28.5 20.5834C28.5 12.7126 22.1208 6.33336 14.25 6.33336L14.25 6.33336L14.25 6.33336ZM19.6587 23.332C19.6587 20.5026 16.7137 19.7141 14.4558 18.6532C13.0878 17.9423 13.2573 16.2386 15.2206 16.1246C16.3147 16.0581 17.4309 16.3811 18.4443 16.7374L18.9224 14.5651C17.7254 14.2009 16.6583 14.0346 15.7003 14.0077L15.7003 12.6666L14.383 12.6666L14.383 14.0742C11.8164 14.4273 10.4437 16.0376 10.4437 17.8346C10.4437 21.052 14.2009 21.5428 15.428 22.1144C17.1079 22.8649 16.7944 24.4229 15.2792 24.7665C13.965 25.0641 12.2819 24.5448 11.0232 24.054L10.4247 26.2231C11.6027 26.8327 13.0166 27.1589 14.383 27.1811L14.383 28.5L15.7003 28.5L15.7003 27.1114C17.8869 26.8042 19.6634 25.5977 19.6587 23.332L19.6587 23.332L19.6587 23.332Z" id="Shape" fill="#000000" fill-rule="evenodd" stroke="none" />
            </g>
          </g>
        </g>
      </g>
      <g id="." transform="translate(101.52728 73.643616)">
        <path d="M0 5.6835C0 4.9023 0.161133 4.165 0.483398 3.4716C0.805672 2.77827 1.26953 2.1728 1.875 1.6552C2.48047 1.13766 3.21291 0.732399 4.0723 0.4394C4.9317 0.146469 5.8985 0 6.9727 0C8.04691 0 9.0137 0.146469 9.8731 0.4394C10.7325 0.732399 11.46 1.13766 12.0557 1.6552C12.6514 2.1728 13.1104 2.77827 13.4327 3.4716C13.755 4.165 13.9161 4.9023 13.9161 5.6835C13.9161 6.46477 13.755 7.2021 13.4327 7.8955C13.1104 8.58884 12.6514 9.1894 12.0557 9.6972C11.46 10.205 10.7325 10.6103 9.8731 10.913C9.0137 11.2157 8.04691 11.3671 6.9727 11.3671C5.8985 11.3671 4.9317 11.2157 4.0723 10.913C3.21291 10.6103 2.48047 10.205 1.875 9.6972C1.26953 9.1894 0.805672 8.58884 0.483398 7.8955C0.161133 7.2021 0 6.46477 0 5.6835L0 5.6835Z" id="Shape" fill="#49AA26" fill-rule="evenodd" stroke="none" />
      </g>
    </g>
  </g>
</svg>